<?xml version="1.0" encoding="UTF-8"?>
<svg width="80px" height="80px" viewBox="0 0 80 80" version="1.1" xmlns="http://www.w3.org/2000/svg" xmlns:xlink="http://www.w3.org/1999/xlink">
    <!-- Generator: sketchtool 58 (101010) - https://sketch.com -->
    <title>AF8EEA64-EFB2-41EE-90AE-3AE6A1A2E932</title>
    <desc>Created with sketchtool.</desc>
    <g id="Design-Sprint" stroke="none" stroke-width="1" fill="none" fill-rule="evenodd">
        <g id="StokkurSprint" transform="translate(-690.000000, -93.000000)" fill="#85B340">
            <g id="Logo-/-Logo-Color" transform="translate(690.000000, 93.000000)">
                <path d="M31.6171421,32.7524027 L32.1305554,33.9766399 C32.2595136,34.3975907 32.4822322,34.9740435 32.7987178,35.7060156 C33.2113842,37.0530583 33.654936,41.0603419 34.1293864,47.7279865 C34.3384028,50.5180585 34.739509,52.8812461 35.3327169,54.8176201 C35.9517166,56.8381842 36.8811448,58.441796 38.1210294,59.6285035 C39.3609141,60.815211 40.9931602,61.0996863 43.0178168,60.4819378 C45.970441,59.5810546 48.1914627,56.1416481 49.6809485,50.1636151 C49.9291961,49.1672762 50.6244965,44.8125143 51.7668707,37.0991988 C52.3670644,38.7572627 53.7420627,42.3422629 55.8919068,47.8543069 C59.8256775,56.7806122 64.1967769,60.5101326 69.0053364,59.04298 C72.3891016,58.0105502 75.4727544,55.7358045 78.256358,52.2186901 C73.0833824,68.3338024 57.9473517,80 40.0810158,80 C33.3571147,80 27.0199214,78.3476541 21.4548928,75.4276403 C24.4116906,73.6180658 26.0919178,69.0277215 26.4966435,61.6562766 C26.692776,57.1775765 26.7129351,51.3717621 26.5571215,44.2386592 C26.8591037,42.2132704 27.3064262,40.511798 27.8991023,39.134191 C29.0962748,37.0197874 30.335609,34.8925459 31.6171421,32.7524027 L31.6171421,32.7524027 Z M0.738581866,32.3099496 C1.04147848,34.1470594 1.46982257,35.9694644 2.02361994,37.7771927 C2.53945298,39.4609961 5.10891071,46.0416741 9.73207024,57.5194241 C12.3642161,64.0541569 14.3006164,68.7570416 15.5412848,71.6281104 C6.08571148,64.3113977 0,52.8649594 0,40 C0,37.5699471 0.217133072,35.1905058 0.633093135,32.8799453 Z M40.0810158,0 C60.9948797,0 78.1675622,15.9855246 80.0002151,36.3811703 C78.3156124,37.786808 76.8507194,39.4226924 75.6040011,41.287542 C75.2267952,41.86293 73.2846431,45.309308 69.7774865,51.6267795 C67.7125349,49.4029769 66.1485316,47.2335023 65.0854298,45.1182905 C64.0223279,43.0030788 62.9878553,40.303805 61.9819808,37.0203883 C61.5247168,35.2266551 61.0949974,33.4475613 60.6928096,31.6830535 C60.2906217,29.9185457 59.8316182,28.1944159 59.3157852,26.5106124 C58.2841191,23.1430055 57.150645,20.4969529 55.9153289,18.5723752 C54.6800127,16.6477975 53.3031291,15.9171753 51.7846367,16.3804866 C49.8443408,16.9724956 48.001595,19.2378166 46.256344,23.1765176 C45.1037691,25.7376116 44.138736,28.6096838 43.3612157,31.7928202 C42.7798279,30.4972564 41.7624145,28.2300539 40.308945,24.9911446 C37.9436306,20.2813196 34.8207244,18.5184425 30.9401326,19.7024603 C26.9751801,20.9122177 23.9516682,25.1948522 21.8695063,32.5504922 C20.7663634,36.4773969 19.3459466,41.9279535 17.6082132,48.9023254 C16.4078257,45.5861975 15.2074563,42.2701194 14.0070688,38.9539915 C10.1504642,29.2567375 6.39524033,24.7498378 2.74129341,25.4331734 C8.57598089,10.5455121 23.0944859,0 40.0810158,0 Z" id="Combined-Shape"></path>
            </g>
        </g>
    </g>
</svg>